<svg xmlns="http://www.w3.org/2000/svg" width="516" height="282" viewBox="0 0 516 282" fill="none">
  <rect width="516" height="282" fill="#FFFFFF"/>
  <rect x="72" y="24" width="280" height="234" rx="14" fill="#FAFAFA"/>
  <rect x="96" y="48" width="120" height="14" rx="4" fill="#E4E4E7"/>
  <rect x="96" y="84" width="232" height="40" rx="10" fill="#FFFFFF" stroke="#E4E4E7"/>
  <rect x="112" y="98" width="100" height="10" rx="3" fill="#D4D4D8"/>
  <rect x="96" y="140" width="232" height="40" rx="10" fill="#FFFFFF" stroke="#E4E4E7"/>
  <rect x="112" y="154" width="140" height="10" rx="3" fill="#D4D4D8"/>
  <rect x="96" y="196" width="96" height="32" rx="8" fill="#E4E4E7"/>
  <rect x="372" y="40" width="120" height="200" rx="12" fill="#FAFAFA"/>
  <rect x="388" y="60" width="88" height="8" rx="3" fill="#E4E4E7"/>
  <rect x="388" y="84" width="88" height="56" rx="8" fill="#FFFFFF" stroke="#E4E4E7"/>
  <rect x="388" y="156" width="88" height="8" rx="3" fill="#E4E4E7"/>
  <rect x="388" y="176" width="64" height="8" rx="3" fill="#E4E4E7"/>
</svg>
